PathFileType  4	(X/Y/Z) C:\Users\antoi\Documents\MyRepositories\mobilecap\ResultsAnalysis
DataRate	CameraRate	NumFrames	NumMarkers	Units	OrigDataRate	OrigDataStartFrame	OrigNumFrames
100.0	100.0	6	51	mm	100.0	109	216
Frame#	Time	r_knee			r_shank_antsup			r_ankle			r_calc			r_5meta			r_toe			L_knee			L_shank_antsup			L_ankle			L_calc			L_5meta			L_toe			r_sh2			r_sh3			r_sh4			L_sh2			L_sh3			r_thigh1			r_thigh2			r_thigh3			r_thigh4			r_thigh5			L_thigh1			L_thigh2			L_thigh3			L_thigh4			r.ASIS			r.PSIS			L.ASIS			L.PSIS			C7			R_Shoulder			L_Shoulder			R_Sternum			L_Sternum			R_humerus			R_elbow_med			R_elbow_lat			R_forearm			R_wrist_radius			R_wrist_ulna			L_humerus			L_elbow_med			L_elbow_lat			L_forearm			L_wrist_radius			L_wrist_ulna			R_HJC			L_HJC			R_HJC_reg			L_HJC_reg			
		X1	Y1	Z1	X2	Y2	Z2	X3	Y3	Z3	X4	Y4	Z4	X5	Y5	Z5	X6	Y6	Z6	X7	Y7	Z7	X8	Y8	Z8	X9	Y9	Z9	X10	Y10	Z10	X11	Y11	Z11	X12	Y12	Z12	X13	Y13	Z13	X14	Y14	Z14	X15	Y15	Z15	X16	Y16	Z16	X17	Y17	Z17	X18	Y18	Z18	X19	Y19	Z19	X20	Y20	Z20	X21	Y21	Z21	X22	Y22	Z22	X23	Y23	Z23	X24	Y24	Z24	X25	Y25	Z25	X26	Y26	Z26	X27	Y27	Z27	X28	Y28	Z28	X29	Y29	Z29	X30	Y30	Z30	X31	Y31	Z31	X32	Y32	Z32	X33	Y33	Z33	X34	Y34	Z34	X35	Y35	Z35	X36	Y36	Z36	X37	Y37	Z37	X38	Y38	Z38	X39	Y39	Z39	X40	Y40	Z40	X41	Y41	Z41	X42	Y42	Z42	X43	Y43	Z43	X44	Y44	Z44	X45	Y45	Z45	X46	Y46	Z46	X47	Y47	Z47	X48	Y48	Z48	X49	Y49	Z49	X50	Y50	Z50	X51	Y51	Z51	

109	1.08000000	-137.55665	430.82951	-390.69858	-127.90761	360.61745	-365.92321	-260.39408	91.05883	-410.16263	-335.07049	59.08686	-453.47068	-168.98931	43.84723	-377.44798	-120.03977	61.47040	-431.09446	-107.40844	413.52434	-712.88338	-84.61447	339.84615	-717.25393	-264.88550	96.60202	-715.35673	-344.24259	60.35353	-675.18312	-178.14221	42.51590	-740.37585	-129.55750	62.12245	-682.31702	-168.68263	253.92055	-365.62898	-196.18489	387.50520	-379.38871	-245.19592	281.56018	-381.81776	-158.45426	385.46741	-740.91617	-209.19932	274.15125	-747.93292	-362.92499	635.16788	-412.89735	-263.30583	588.82462	-398.64138	-266.71961	538.53255	-352.31761	-409.97815	559.25339	-341.00429	-309.62973	500.30954	-348.17826	-322.84356	595.99684	-711.62104	-197.53866	540.52583	-710.19237	-375.40385	493.72437	-733.11307	-241.79022	442.77876	-726.64885	-386.34006	655.75229	-414.24985	-544.93055	716.87265	-508.16673	-355.40137	628.32835	-664.39728	-533.45429	702.80674	-614.17805	-175.43294	1034.20981	-546.81440	-170.20658	974.15753	-403.89612	-121.90786	948.32538	-681.10073	-115.62821	896.01846	-511.92429	-108.00690	893.47759	-551.60246	-323.26167	835.01220	-274.06387	-415.47830	748.88233	-299.41184	-390.77628	788.60959	-235.31815	-323.46752	684.37780	-212.54970	-273.36732	588.61412	-205.07930	-305.89418	571.81225	-178.61580	-150.51223	845.58152	-765.00109	-303.19618	684.69019	-814.55629	-275.78586	713.94950	-878.16061	-171.55812	668.77669	-835.98716	-91.53946	612.98071	-770.35969	-91.47963	585.50034	-796.80002	-465.75548	599.10086	-442.51695	-439.85065	580.10595	-640.21290	-464.20744	595.13316	-450.90808	-446.34664	573.24481	-615.85006	
110	1.09000000	-132.85861	430.72191	-390.37687	-123.68976	359.34839	-366.08536	-259.91725	91.33789	-410.31790	-335.02326	59.44344	-453.60571	-168.91813	43.85589	-377.51710	-119.80060	61.18364	-431.30185	-101.25923	412.26552	-711.45605	-78.42478	337.90142	-714.73495	-263.71186	97.43445	-714.69060	-343.66731	61.45723	-674.69740	-177.85412	42.62899	-740.02156	-128.95650	61.68457	-681.99956	-165.52735	252.28484	-366.52911	-192.08688	385.84703	-378.76327	-242.04593	281.09385	-381.06300	-151.22799	383.86724	-740.20826	-202.69687	273.12070	-748.40003	-363.31771	628.44995	-414.76464	-260.76075	585.13540	-400.20425	-264.11017	534.72445	-353.43283	-408.92662	552.29974	-342.76251	-307.45147	494.86074	-349.54365	-318.82490	590.98017	-709.41500	-192.16272	538.66576	-706.72619	-369.10705	488.56353	-736.38980	-234.41974	440.80525	-728.97421	-386.51788	648.19712	-417.74361	-542.77363	707.74447	-512.72487	-351.73802	618.17444	-665.10439	-530.53595	693.24554	-618.62829	-165.55404	1020.18703	-548.30642	-162.32516	957.47422	-403.00588	-111.10260	929.68700	-678.11962	-109.75199	881.25654	-510.06272	-101.20588	877.85775	-549.12005	-299.99138	803.30933	-275.13865	-388.99755	712.21822	-301.67821	-363.98707	750.95095	-236.25179	-287.66790	652.31232	-221.75340	-229.06909	561.77875	-221.84142	-258.32881	541.01912	-194.26613	-132.40686	823.35076	-758.62653	-276.41242	656.34075	-812.15708	-246.38711	684.46866	-874.96953	-142.55313	647.87083	-825.62763	-62.52555	600.34812	-753.86870	-59.10111	572.21725	-779.29938	-465.01585	591.03100	-445.23801	-436.48510	570.15628	-642.38174	-462.51071	586.81871	-454.10064	-443.62712	564.44315	-617.55787	
111	1.10000000	-128.59123	429.59482	-389.43336	-120.19353	357.85646	-366.30520	-259.55143	91.59317	-410.75354	-334.80516	59.72615	-453.81167	-168.88242	43.88867	-377.57266	-119.54208	60.86681	-431.58441	-95.60918	411.74682	-710.39416	-73.01720	336.45155	-712.87856	-262.58744	98.42343	-713.93991	-343.06668	62.72880	-673.94194	-177.58243	42.91667	-739.61115	-128.35806	61.30560	-681.54949	-163.15967	251.50406	-366.95031	-189.05448	384.58588	-378.70425	-239.45380	281.01788	-381.91988	-144.54246	383.69326	-739.63773	-198.28811	274.07697	-747.54332	-362.77344	621.66239	-415.08179	-258.45736	579.63287	-398.79117	-262.38114	528.75895	-353.64504	-407.78740	543.97813	-344.85928	-305.24633	488.04847	-351.49111	-315.96468	588.45837	-707.40278	-188.39617	537.70790	-703.88806	-364.04479	486.49364	-739.14699	-229.04207	439.90911	-731.41311	-385.72795	640.79475	-421.01129	-540.36849	699.17533	-517.55721	-348.15431	609.43870	-666.18375	-527.69780	684.16202	-623.34891	-156.95108	1006.75211	-545.66027	-154.81659	942.41061	-401.29655	-101.79651	913.33488	-675.84485	-104.43910	866.47351	-507.36130	-95.54222	863.20419	-547.35763	-276.06259	774.41864	-277.47214	-360.73221	679.49115	-304.77952	-336.18971	716.85918	-238.17048	-251.26676	624.93356	-232.23170	-184.47745	541.09952	-239.67609	-210.09119	516.24878	-212.00631	-115.63636	803.73356	-750.77392	-249.13348	630.06583	-809.52410	-216.54461	657.53318	-870.85780	-113.99117	630.75163	-814.53522	-34.71700	592.23651	-736.60025	-27.96313	563.49684	-760.60663	-463.68311	583.28113	-448.34854	-432.79400	561.15714	-645.00690	-460.32771	579.46734	-456.96608	-440.90264	556.44310	-619.19446	
112	1.11000000	-126.03855	427.22855	-388.97838	-117.88650	355.97718	-366.42789	-259.34570	91.82714	-411.17217	-334.53052	59.92762	-454.09353	-168.89380	43.92925	-377.62316	-119.34128	60.58997	-431.81054	-90.75095	410.77444	-709.95640	-68.83908	335.16957	-711.98020	-261.76593	99.11472	-713.44685	-342.74748	63.73469	-673.34505	-177.38643	43.14365	-739.39441	-127.90659	61.04722	-681.25819	-161.95882	251.08908	-366.78434	-186.52213	384.20622	-379.54549	-237.82186	280.93689	-383.22896	-139.51678	383.73041	-739.05962	-195.49126	275.16063	-745.87353	-361.59857	614.71184	-415.40297	-257.71715	573.61748	-397.79440	-261.97447	521.64294	-353.35768	-406.52717	535.85226	-346.92031	-303.34039	481.12067	-353.65255	-314.19892	586.51066	-707.13040	-186.23437	536.18317	-702.31295	-360.17956	484.70858	-741.42018	-225.11337	438.58327	-733.20966	-384.16239	633.31161	-422.64262	-537.97384	691.34802	-522.08350	-344.93057	602.07068	-668.40918	-524.66242	676.10511	-627.50756	-151.37345	993.35669	-539.67623	-148.06914	928.68258	-399.77648	-93.96627	899.52493	-674.35117	-99.68951	851.85819	-504.27246	-90.56625	849.70051	-545.86026	-252.17614	749.03178	-280.39603	-332.67204	650.84161	-307.69900	-307.37194	686.21354	-240.78808	-214.43641	602.67922	-243.36403	-140.27012	526.44233	-258.06977	-161.82914	497.69279	-230.96525	-100.68558	787.80505	-742.59916	-221.13804	606.03717	-805.50128	-186.38162	633.44190	-865.20696	-86.13046	617.40541	-802.67064	-8.37948	588.32621	-719.20017	1.58851	558.97942	-741.36860	-461.99618	575.71689	-451.51148	-429.20053	553.39104	-647.83784	-458.63614	572.11711	-459.10144	-438.09945	548.60931	-621.67730	
113	1.12000000	-124.77472	424.34466	-389.27061	-116.56179	354.48593	-366.21225	-259.13906	92.11507	-411.49334	-334.33913	60.16517	-454.44814	-168.89794	43.97145	-377.72550	-119.26172	60.48655	-431.80242	-87.14438	409.08973	-709.72031	-65.67876	333.83337	-712.00527	-261.20031	99.44729	-713.20613	-342.65695	64.40527	-673.18179	-177.23780	43.17481	-739.34583	-127.58799	60.85481	-681.19365	-161.38662	250.36338	-366.54032	-184.24205	384.02723	-380.88143	-236.80394	280.63166	-384.10032	-136.12897	383.25751	-738.15275	-193.28413	274.98614	-744.62935	-360.34709	608.13227	-416.48383	-257.45899	568.35408	-397.77160	-261.52188	515.23769	-353.34012	-405.38115	528.71044	-348.80337	-301.89351	475.11183	-355.41112	-312.82530	583.16622	-708.72751	-184.70571	533.64341	-702.58419	-357.16602	480.82566	-743.96140	-221.86616	435.83840	-734.01394	-382.99881	626.11164	-423.04894	-535.84449	684.29494	-525.70642	-341.88007	595.83893	-670.72623	-521.44114	669.68588	-630.58278	-147.58591	980.82972	-536.20984	-142.48619	915.73991	-398.96351	-87.33390	888.24025	-673.17029	-95.62663	838.97925	-502.19246	-85.90669	837.57619	-544.44348	-228.95852	727.60787	-283.63606	-305.96909	625.03283	-310.19153	-277.34279	659.06829	-244.08578	-177.44868	585.46129	-254.90539	-96.98250	517.82523	-276.79695	-114.16689	485.67409	-250.26619	-87.18473	775.76257	-735.77927	-192.88936	585.14235	-800.07299	-155.96230	612.64599	-857.65180	-59.20078	607.71087	-790.19470	16.26144	588.32714	-702.30970	29.44148	558.80639	-722.73754	-460.68526	568.57518	-454.30413	-425.93978	547.00184	-650.37355	-457.67458	564.31315	-460.99713	-435.17000	541.50326	-624.79987	
114	1.13000000	-123.35626	421.97602	-389.38618	-115.55028	353.56197	-365.65876	-258.85956	92.38761	-411.87717	-334.20502	60.44297	-454.75136	-168.86413	43.99582	-377.86907	-119.29287	60.57435	-431.59858	-84.28774	406.84612	-709.68752	-63.16680	331.81345	-712.51563	-260.78319	99.53314	-713.25072	-342.55488	64.69814	-673.48061	-177.12869	43.06094	-739.37397	-127.37382	60.69340	-681.23019	-160.77594	249.37354	-366.48872	-182.44587	383.41672	-381.63540	-235.84572	280.28835	-384.52569	-133.54066	381.94680	-737.45247	-191.46250	273.08419	-743.92802	-359.39786	602.72304	-417.96014	-256.53501	564.16583	-397.71602	-260.29085	510.32644	-354.08405	-404.56881	522.68834	-350.57266	-300.67173	470.17074	-356.76453	-311.32042	578.26330	-711.77010	-183.07243	530.18930	-704.66965	-354.58807	474.82376	-746.07039	-218.89990	431.50794	-733.92776	-382.33571	619.89997	-423.54161	-533.85959	678.08449	-528.10879	-338.70069	590.60393	-672.02722	-518.20540	665.05706	-632.74502	-143.77766	970.03919	-536.76015	-137.55209	903.79498	-398.81643	-81.41583	879.34322	-671.95648	-92.21832	828.27664	-501.60885	-81.58536	826.85808	-543.41238	-206.72664	710.17944	-287.02587	-277.27011	601.87018	-313.54444	-246.31643	635.92753	-248.29740	-140.80523	573.36586	-266.85208	-55.18591	515.39918	-295.43355	-67.83531	480.37275	-269.53672	-74.37018	767.10479	-731.18468	-164.56197	568.05060	-793.59831	-125.68286	595.68647	-848.98227	-33.28067	601.59938	-777.43531	39.14772	591.96927	-686.00961	55.48636	563.02812	-704.93304	-459.65749	562.37150	-456.51661	-422.88601	541.93638	-652.33973	-456.49010	556.46257	-463.24200	-431.88182	535.97168	-627.78120	
